<mxfile host="app.diagrams.net" modified="2023-11-02T14:13:16.957Z" agent="Mozilla/5.0 (Windows NT 10.0; Win64; x64) AppleWebKit/537.36 (KHTML, like Gecko) Chrome/118.0.0.0 Safari/537.36" etag="bfgJSQ6pg9tGgu2Xi4PC" version="22.0.8" type="device">
  <diagram name="1 oldal" id="B9ZE2kQZwAp2c9WjKifw">
    <mxGraphModel dx="2261" dy="1959" grid="1" gridSize="10" guides="1" tooltips="1" connect="1" arrows="1" fold="1" page="1" pageScale="1" pageWidth="827" pageHeight="1169" math="0" shadow="0">
      <root>
        <mxCell id="0" />
        <mxCell id="1" parent="0" />
        <mxCell id="uIWcdxFKx0S_VASGW4Y0-14" style="edgeStyle=orthogonalEdgeStyle;rounded=0;orthogonalLoop=1;jettySize=auto;html=1;exitX=0.5;exitY=1;exitDx=0;exitDy=0;entryX=0.5;entryY=0;entryDx=0;entryDy=0;endArrow=none;endFill=0;" parent="1" source="uIWcdxFKx0S_VASGW4Y0-3" target="uIWcdxFKx0S_VASGW4Y0-19" edge="1">
          <mxGeometry relative="1" as="geometry">
            <mxPoint x="-10" y="320" as="targetPoint" />
          </mxGeometry>
        </mxCell>
        <mxCell id="uIWcdxFKx0S_VASGW4Y0-15" style="edgeStyle=orthogonalEdgeStyle;rounded=0;orthogonalLoop=1;jettySize=auto;html=1;exitX=0.5;exitY=1;exitDx=0;exitDy=0;entryX=0.5;entryY=0;entryDx=0;entryDy=0;endArrow=none;endFill=0;" parent="1" source="uIWcdxFKx0S_VASGW4Y0-3" target="uIWcdxFKx0S_VASGW4Y0-9" edge="1">
          <mxGeometry relative="1" as="geometry" />
        </mxCell>
        <mxCell id="uIWcdxFKx0S_VASGW4Y0-16" style="edgeStyle=orthogonalEdgeStyle;rounded=0;orthogonalLoop=1;jettySize=auto;html=1;exitX=0.5;exitY=1;exitDx=0;exitDy=0;entryX=0.5;entryY=0;entryDx=0;entryDy=0;endArrow=none;endFill=0;" parent="1" source="uIWcdxFKx0S_VASGW4Y0-3" target="uIWcdxFKx0S_VASGW4Y0-11" edge="1">
          <mxGeometry relative="1" as="geometry" />
        </mxCell>
        <mxCell id="uIWcdxFKx0S_VASGW4Y0-3" value="Pizzázó" style="ellipse;shape=doubleEllipse;margin=3;whiteSpace=wrap;html=1;align=center;" parent="1" vertex="1">
          <mxGeometry x="50" y="240" width="100" height="40" as="geometry" />
        </mxCell>
        <mxCell id="uIWcdxFKx0S_VASGW4Y0-62" style="edgeStyle=orthogonalEdgeStyle;rounded=0;orthogonalLoop=1;jettySize=auto;html=1;exitX=0.5;exitY=1;exitDx=0;exitDy=0;entryX=0.5;entryY=0;entryDx=0;entryDy=0;endArrow=none;endFill=0;" parent="1" source="uIWcdxFKx0S_VASGW4Y0-4" target="uIWcdxFKx0S_VASGW4Y0-54" edge="1">
          <mxGeometry relative="1" as="geometry" />
        </mxCell>
        <mxCell id="uIWcdxFKx0S_VASGW4Y0-63" style="edgeStyle=orthogonalEdgeStyle;rounded=0;orthogonalLoop=1;jettySize=auto;html=1;exitX=0.5;exitY=1;exitDx=0;exitDy=0;entryX=0.5;entryY=0;entryDx=0;entryDy=0;endArrow=none;endFill=0;" parent="1" source="uIWcdxFKx0S_VASGW4Y0-4" target="uIWcdxFKx0S_VASGW4Y0-55" edge="1">
          <mxGeometry relative="1" as="geometry" />
        </mxCell>
        <mxCell id="uIWcdxFKx0S_VASGW4Y0-64" style="edgeStyle=orthogonalEdgeStyle;rounded=0;orthogonalLoop=1;jettySize=auto;html=1;exitX=0.5;exitY=1;exitDx=0;exitDy=0;endArrow=none;endFill=0;" parent="1" source="uIWcdxFKx0S_VASGW4Y0-4" target="uIWcdxFKx0S_VASGW4Y0-56" edge="1">
          <mxGeometry relative="1" as="geometry" />
        </mxCell>
        <mxCell id="uIWcdxFKx0S_VASGW4Y0-65" style="edgeStyle=orthogonalEdgeStyle;rounded=0;orthogonalLoop=1;jettySize=auto;html=1;exitX=0.5;exitY=1;exitDx=0;exitDy=0;entryX=0.5;entryY=0;entryDx=0;entryDy=0;endArrow=none;endFill=0;" parent="1" source="uIWcdxFKx0S_VASGW4Y0-4" target="uIWcdxFKx0S_VASGW4Y0-59" edge="1">
          <mxGeometry relative="1" as="geometry" />
        </mxCell>
        <mxCell id="uIWcdxFKx0S_VASGW4Y0-4" value="Futár" style="ellipse;shape=doubleEllipse;margin=3;whiteSpace=wrap;html=1;align=center;" parent="1" vertex="1">
          <mxGeometry x="1370" y="240" width="100" height="40" as="geometry" />
        </mxCell>
        <mxCell id="uIWcdxFKx0S_VASGW4Y0-68" style="edgeStyle=orthogonalEdgeStyle;rounded=0;orthogonalLoop=1;jettySize=auto;html=1;exitX=0.5;exitY=1;exitDx=0;exitDy=0;entryX=0.5;entryY=0;entryDx=0;entryDy=0;endArrow=none;endFill=0;" parent="1" source="uIWcdxFKx0S_VASGW4Y0-5" target="uIWcdxFKx0S_VASGW4Y0-67" edge="1">
          <mxGeometry relative="1" as="geometry" />
        </mxCell>
        <mxCell id="uIWcdxFKx0S_VASGW4Y0-74" style="edgeStyle=orthogonalEdgeStyle;rounded=0;orthogonalLoop=1;jettySize=auto;html=1;exitX=0.5;exitY=1;exitDx=0;exitDy=0;entryX=0.5;entryY=0;entryDx=0;entryDy=0;endArrow=none;endFill=0;" parent="1" source="uIWcdxFKx0S_VASGW4Y0-5" target="uIWcdxFKx0S_VASGW4Y0-69" edge="1">
          <mxGeometry relative="1" as="geometry" />
        </mxCell>
        <mxCell id="uIWcdxFKx0S_VASGW4Y0-75" style="edgeStyle=orthogonalEdgeStyle;rounded=0;orthogonalLoop=1;jettySize=auto;html=1;exitX=0.5;exitY=1;exitDx=0;exitDy=0;entryX=0.5;entryY=0;entryDx=0;entryDy=0;endArrow=none;endFill=0;" parent="1" source="uIWcdxFKx0S_VASGW4Y0-5" target="uIWcdxFKx0S_VASGW4Y0-70" edge="1">
          <mxGeometry relative="1" as="geometry" />
        </mxCell>
        <mxCell id="uIWcdxFKx0S_VASGW4Y0-76" style="edgeStyle=orthogonalEdgeStyle;rounded=0;orthogonalLoop=1;jettySize=auto;html=1;exitX=0.5;exitY=1;exitDx=0;exitDy=0;entryX=0.5;entryY=0;entryDx=0;entryDy=0;endArrow=none;endFill=0;" parent="1" source="uIWcdxFKx0S_VASGW4Y0-5" target="uIWcdxFKx0S_VASGW4Y0-71" edge="1">
          <mxGeometry relative="1" as="geometry" />
        </mxCell>
        <mxCell id="uIWcdxFKx0S_VASGW4Y0-77" style="edgeStyle=orthogonalEdgeStyle;rounded=0;orthogonalLoop=1;jettySize=auto;html=1;exitX=0.5;exitY=1;exitDx=0;exitDy=0;entryX=0.5;entryY=0;entryDx=0;entryDy=0;endArrow=none;endFill=0;" parent="1" source="uIWcdxFKx0S_VASGW4Y0-5" target="uIWcdxFKx0S_VASGW4Y0-73" edge="1">
          <mxGeometry relative="1" as="geometry" />
        </mxCell>
        <mxCell id="uIWcdxFKx0S_VASGW4Y0-80" style="edgeStyle=orthogonalEdgeStyle;rounded=0;orthogonalLoop=1;jettySize=auto;html=1;exitX=0.5;exitY=1;exitDx=0;exitDy=0;entryX=0.5;entryY=0;entryDx=0;entryDy=0;endArrow=none;endFill=0;" parent="1" source="uIWcdxFKx0S_VASGW4Y0-5" target="uIWcdxFKx0S_VASGW4Y0-78" edge="1">
          <mxGeometry relative="1" as="geometry" />
        </mxCell>
        <mxCell id="uIWcdxFKx0S_VASGW4Y0-5" value="Pizza" style="ellipse;shape=doubleEllipse;margin=3;whiteSpace=wrap;html=1;align=center;" parent="1" vertex="1">
          <mxGeometry x="1940" y="240" width="100" height="40" as="geometry" />
        </mxCell>
        <mxCell id="uIWcdxFKx0S_VASGW4Y0-50" style="edgeStyle=orthogonalEdgeStyle;rounded=0;orthogonalLoop=1;jettySize=auto;html=1;exitX=0.5;exitY=1;exitDx=0;exitDy=0;endArrow=none;endFill=0;" parent="1" source="uIWcdxFKx0S_VASGW4Y0-6" target="uIWcdxFKx0S_VASGW4Y0-36" edge="1">
          <mxGeometry relative="1" as="geometry" />
        </mxCell>
        <mxCell id="uIWcdxFKx0S_VASGW4Y0-51" style="edgeStyle=orthogonalEdgeStyle;rounded=0;orthogonalLoop=1;jettySize=auto;html=1;exitX=0.5;exitY=1;exitDx=0;exitDy=0;entryX=0.5;entryY=0;entryDx=0;entryDy=0;endArrow=none;endFill=0;" parent="1" source="uIWcdxFKx0S_VASGW4Y0-6" target="uIWcdxFKx0S_VASGW4Y0-37" edge="1">
          <mxGeometry relative="1" as="geometry" />
        </mxCell>
        <mxCell id="uIWcdxFKx0S_VASGW4Y0-52" style="edgeStyle=orthogonalEdgeStyle;rounded=0;orthogonalLoop=1;jettySize=auto;html=1;exitX=0.5;exitY=1;exitDx=0;exitDy=0;entryX=0.5;entryY=0;entryDx=0;entryDy=0;endArrow=none;endFill=0;" parent="1" source="uIWcdxFKx0S_VASGW4Y0-6" target="uIWcdxFKx0S_VASGW4Y0-38" edge="1">
          <mxGeometry relative="1" as="geometry" />
        </mxCell>
        <mxCell id="uIWcdxFKx0S_VASGW4Y0-53" style="edgeStyle=orthogonalEdgeStyle;rounded=0;orthogonalLoop=1;jettySize=auto;html=1;exitX=0.5;exitY=1;exitDx=0;exitDy=0;entryX=0.5;entryY=0;entryDx=0;entryDy=0;endArrow=none;endFill=0;" parent="1" source="uIWcdxFKx0S_VASGW4Y0-6" target="uIWcdxFKx0S_VASGW4Y0-39" edge="1">
          <mxGeometry relative="1" as="geometry" />
        </mxCell>
        <mxCell id="uIWcdxFKx0S_VASGW4Y0-6" value="Beszállító" style="ellipse;shape=doubleEllipse;margin=3;whiteSpace=wrap;html=1;align=center;" parent="1" vertex="1">
          <mxGeometry x="930" y="240" width="100" height="40" as="geometry" />
        </mxCell>
        <mxCell id="uIWcdxFKx0S_VASGW4Y0-99" style="edgeStyle=orthogonalEdgeStyle;rounded=0;orthogonalLoop=1;jettySize=auto;html=1;exitX=0.5;exitY=1;exitDx=0;exitDy=0;entryX=0.5;entryY=0;entryDx=0;entryDy=0;endArrow=none;endFill=0;" parent="1" source="uIWcdxFKx0S_VASGW4Y0-7" target="uIWcdxFKx0S_VASGW4Y0-91" edge="1">
          <mxGeometry relative="1" as="geometry" />
        </mxCell>
        <mxCell id="uIWcdxFKx0S_VASGW4Y0-100" style="edgeStyle=orthogonalEdgeStyle;rounded=0;orthogonalLoop=1;jettySize=auto;html=1;exitX=0.5;exitY=1;exitDx=0;exitDy=0;entryX=0.5;entryY=0;entryDx=0;entryDy=0;endArrow=none;endFill=0;" parent="1" source="uIWcdxFKx0S_VASGW4Y0-7" target="uIWcdxFKx0S_VASGW4Y0-92" edge="1">
          <mxGeometry relative="1" as="geometry" />
        </mxCell>
        <mxCell id="uIWcdxFKx0S_VASGW4Y0-101" style="edgeStyle=orthogonalEdgeStyle;rounded=0;orthogonalLoop=1;jettySize=auto;html=1;exitX=0.5;exitY=1;exitDx=0;exitDy=0;entryX=0.5;entryY=0;entryDx=0;entryDy=0;endArrow=none;endFill=0;" parent="1" source="uIWcdxFKx0S_VASGW4Y0-7" target="uIWcdxFKx0S_VASGW4Y0-93" edge="1">
          <mxGeometry relative="1" as="geometry" />
        </mxCell>
        <mxCell id="uIWcdxFKx0S_VASGW4Y0-102" style="edgeStyle=orthogonalEdgeStyle;rounded=0;orthogonalLoop=1;jettySize=auto;html=1;exitX=0.5;exitY=1;exitDx=0;exitDy=0;endArrow=none;endFill=0;" parent="1" source="uIWcdxFKx0S_VASGW4Y0-7" target="uIWcdxFKx0S_VASGW4Y0-94" edge="1">
          <mxGeometry relative="1" as="geometry" />
        </mxCell>
        <mxCell id="uIWcdxFKx0S_VASGW4Y0-7" value="Vevő" style="ellipse;shape=doubleEllipse;margin=3;whiteSpace=wrap;html=1;align=center;" parent="1" vertex="1">
          <mxGeometry x="2890" y="240" width="100" height="40" as="geometry" />
        </mxCell>
        <mxCell id="uIWcdxFKx0S_VASGW4Y0-113" style="edgeStyle=orthogonalEdgeStyle;rounded=0;orthogonalLoop=1;jettySize=auto;html=1;exitX=0.5;exitY=1;exitDx=0;exitDy=0;entryX=0.5;entryY=0;entryDx=0;entryDy=0;endArrow=none;endFill=0;" parent="1" source="uIWcdxFKx0S_VASGW4Y0-8" target="uIWcdxFKx0S_VASGW4Y0-112" edge="1">
          <mxGeometry relative="1" as="geometry" />
        </mxCell>
        <mxCell id="uIWcdxFKx0S_VASGW4Y0-114" style="edgeStyle=orthogonalEdgeStyle;rounded=0;orthogonalLoop=1;jettySize=auto;html=1;exitX=0.5;exitY=1;exitDx=0;exitDy=0;entryX=0.5;entryY=0;entryDx=0;entryDy=0;endArrow=none;endFill=0;" parent="1" source="uIWcdxFKx0S_VASGW4Y0-8" target="uIWcdxFKx0S_VASGW4Y0-109" edge="1">
          <mxGeometry relative="1" as="geometry" />
        </mxCell>
        <mxCell id="uIWcdxFKx0S_VASGW4Y0-115" style="edgeStyle=orthogonalEdgeStyle;rounded=0;orthogonalLoop=1;jettySize=auto;html=1;exitX=0.5;exitY=1;exitDx=0;exitDy=0;entryX=0.5;entryY=0;entryDx=0;entryDy=0;endArrow=none;endFill=0;" parent="1" source="uIWcdxFKx0S_VASGW4Y0-8" target="uIWcdxFKx0S_VASGW4Y0-110" edge="1">
          <mxGeometry relative="1" as="geometry" />
        </mxCell>
        <mxCell id="uIWcdxFKx0S_VASGW4Y0-116" style="edgeStyle=orthogonalEdgeStyle;rounded=0;orthogonalLoop=1;jettySize=auto;html=1;exitX=0.5;exitY=1;exitDx=0;exitDy=0;entryX=0.5;entryY=0;entryDx=0;entryDy=0;endArrow=none;endFill=0;" parent="1" source="uIWcdxFKx0S_VASGW4Y0-8" target="uIWcdxFKx0S_VASGW4Y0-111" edge="1">
          <mxGeometry relative="1" as="geometry" />
        </mxCell>
        <mxCell id="uIWcdxFKx0S_VASGW4Y0-118" style="edgeStyle=orthogonalEdgeStyle;rounded=0;orthogonalLoop=1;jettySize=auto;html=1;exitX=0.5;exitY=1;exitDx=0;exitDy=0;endArrow=none;endFill=0;" parent="1" source="uIWcdxFKx0S_VASGW4Y0-8" target="uIWcdxFKx0S_VASGW4Y0-117" edge="1">
          <mxGeometry relative="1" as="geometry" />
        </mxCell>
        <mxCell id="uIWcdxFKx0S_VASGW4Y0-8" value="Bankkártya" style="ellipse;shape=doubleEllipse;margin=3;whiteSpace=wrap;html=1;align=center;" parent="1" vertex="1">
          <mxGeometry x="3690" y="240" width="100" height="40" as="geometry" />
        </mxCell>
        <mxCell id="87MJ7t0eyfnhKf1NdNzo-6" style="edgeStyle=orthogonalEdgeStyle;rounded=0;orthogonalLoop=1;jettySize=auto;html=1;exitX=0.5;exitY=1;exitDx=0;exitDy=0;entryX=0.5;entryY=0;entryDx=0;entryDy=0;endArrow=none;endFill=0;" edge="1" parent="1" source="uIWcdxFKx0S_VASGW4Y0-9" target="87MJ7t0eyfnhKf1NdNzo-5">
          <mxGeometry relative="1" as="geometry" />
        </mxCell>
        <mxCell id="uIWcdxFKx0S_VASGW4Y0-9" value="Név" style="ellipse;whiteSpace=wrap;html=1;align=center;" parent="1" vertex="1">
          <mxGeometry x="50" y="330" width="100" height="40" as="geometry" />
        </mxCell>
        <mxCell id="uIWcdxFKx0S_VASGW4Y0-17" style="edgeStyle=orthogonalEdgeStyle;rounded=0;orthogonalLoop=1;jettySize=auto;html=1;exitX=0.5;exitY=1;exitDx=0;exitDy=0;endArrow=none;endFill=0;" parent="1" source="uIWcdxFKx0S_VASGW4Y0-11" target="uIWcdxFKx0S_VASGW4Y0-12" edge="1">
          <mxGeometry relative="1" as="geometry" />
        </mxCell>
        <mxCell id="uIWcdxFKx0S_VASGW4Y0-18" style="edgeStyle=orthogonalEdgeStyle;rounded=0;orthogonalLoop=1;jettySize=auto;html=1;exitX=0.5;exitY=1;exitDx=0;exitDy=0;endArrow=none;endFill=0;" parent="1" source="uIWcdxFKx0S_VASGW4Y0-11" target="uIWcdxFKx0S_VASGW4Y0-13" edge="1">
          <mxGeometry relative="1" as="geometry" />
        </mxCell>
        <mxCell id="uIWcdxFKx0S_VASGW4Y0-11" value="( Elérhetőség )" style="ellipse;whiteSpace=wrap;html=1;align=center;" parent="1" vertex="1">
          <mxGeometry x="160" y="330" width="100" height="40" as="geometry" />
        </mxCell>
        <mxCell id="87MJ7t0eyfnhKf1NdNzo-2" style="edgeStyle=orthogonalEdgeStyle;rounded=0;orthogonalLoop=1;jettySize=auto;html=1;exitX=0.5;exitY=1;exitDx=0;exitDy=0;entryX=0.5;entryY=0;entryDx=0;entryDy=0;endArrow=none;endFill=0;" edge="1" parent="1" source="uIWcdxFKx0S_VASGW4Y0-12" target="87MJ7t0eyfnhKf1NdNzo-1">
          <mxGeometry relative="1" as="geometry" />
        </mxCell>
        <mxCell id="uIWcdxFKx0S_VASGW4Y0-12" value="Weboldal" style="ellipse;whiteSpace=wrap;html=1;align=center;" parent="1" vertex="1">
          <mxGeometry x="120" y="420" width="100" height="40" as="geometry" />
        </mxCell>
        <mxCell id="87MJ7t0eyfnhKf1NdNzo-4" style="edgeStyle=orthogonalEdgeStyle;rounded=0;orthogonalLoop=1;jettySize=auto;html=1;exitX=0.5;exitY=1;exitDx=0;exitDy=0;endArrow=none;endFill=0;" edge="1" parent="1" source="uIWcdxFKx0S_VASGW4Y0-13" target="87MJ7t0eyfnhKf1NdNzo-3">
          <mxGeometry relative="1" as="geometry" />
        </mxCell>
        <mxCell id="uIWcdxFKx0S_VASGW4Y0-13" value="Telefonszám" style="ellipse;whiteSpace=wrap;html=1;align=center;" parent="1" vertex="1">
          <mxGeometry x="230" y="420" width="100" height="40" as="geometry" />
        </mxCell>
        <mxCell id="uIWcdxFKx0S_VASGW4Y0-19" value="&lt;u&gt;Pizzázó_ID&lt;/u&gt;" style="shape=rhombus;perimeter=rhombusPerimeter;whiteSpace=wrap;html=1;align=center;" parent="1" vertex="1">
          <mxGeometry x="-50" y="330" width="90" height="40" as="geometry" />
        </mxCell>
        <mxCell id="uIWcdxFKx0S_VASGW4Y0-32" style="edgeStyle=orthogonalEdgeStyle;rounded=0;orthogonalLoop=1;jettySize=auto;html=1;exitX=0.5;exitY=1;exitDx=0;exitDy=0;endArrow=none;endFill=0;" parent="1" source="uIWcdxFKx0S_VASGW4Y0-20" target="uIWcdxFKx0S_VASGW4Y0-24" edge="1">
          <mxGeometry relative="1" as="geometry" />
        </mxCell>
        <mxCell id="uIWcdxFKx0S_VASGW4Y0-33" style="edgeStyle=orthogonalEdgeStyle;rounded=0;orthogonalLoop=1;jettySize=auto;html=1;exitX=0.5;exitY=1;exitDx=0;exitDy=0;entryX=0.5;entryY=0;entryDx=0;entryDy=0;endArrow=none;endFill=0;" parent="1" source="uIWcdxFKx0S_VASGW4Y0-20" target="uIWcdxFKx0S_VASGW4Y0-29" edge="1">
          <mxGeometry relative="1" as="geometry" />
        </mxCell>
        <mxCell id="uIWcdxFKx0S_VASGW4Y0-34" style="edgeStyle=orthogonalEdgeStyle;rounded=0;orthogonalLoop=1;jettySize=auto;html=1;exitX=0.5;exitY=1;exitDx=0;exitDy=0;endArrow=none;endFill=0;" parent="1" source="uIWcdxFKx0S_VASGW4Y0-20" target="uIWcdxFKx0S_VASGW4Y0-22" edge="1">
          <mxGeometry relative="1" as="geometry" />
        </mxCell>
        <mxCell id="uIWcdxFKx0S_VASGW4Y0-35" style="edgeStyle=orthogonalEdgeStyle;rounded=0;orthogonalLoop=1;jettySize=auto;html=1;exitX=0.5;exitY=1;exitDx=0;exitDy=0;entryX=0.5;entryY=0;entryDx=0;entryDy=0;endArrow=none;endFill=0;" parent="1" source="uIWcdxFKx0S_VASGW4Y0-20" target="uIWcdxFKx0S_VASGW4Y0-23" edge="1">
          <mxGeometry relative="1" as="geometry" />
        </mxCell>
        <mxCell id="uIWcdxFKx0S_VASGW4Y0-20" value="Beszállítás" style="ellipse;shape=doubleEllipse;margin=3;whiteSpace=wrap;html=1;align=center;" parent="1" vertex="1">
          <mxGeometry x="470" y="240" width="100" height="40" as="geometry" />
        </mxCell>
        <mxCell id="87MJ7t0eyfnhKf1NdNzo-8" style="edgeStyle=orthogonalEdgeStyle;rounded=0;orthogonalLoop=1;jettySize=auto;html=1;exitX=0.5;exitY=1;exitDx=0;exitDy=0;endArrow=none;endFill=0;" edge="1" parent="1" source="uIWcdxFKx0S_VASGW4Y0-22" target="87MJ7t0eyfnhKf1NdNzo-7">
          <mxGeometry relative="1" as="geometry" />
        </mxCell>
        <mxCell id="uIWcdxFKx0S_VASGW4Y0-22" value="Dátum" style="ellipse;whiteSpace=wrap;html=1;align=center;" parent="1" vertex="1">
          <mxGeometry x="410" y="330" width="100" height="40" as="geometry" />
        </mxCell>
        <mxCell id="87MJ7t0eyfnhKf1NdNzo-10" style="edgeStyle=orthogonalEdgeStyle;rounded=0;orthogonalLoop=1;jettySize=auto;html=1;exitX=0.5;exitY=1;exitDx=0;exitDy=0;entryX=0.5;entryY=0;entryDx=0;entryDy=0;endArrow=none;endFill=0;" edge="1" parent="1" source="uIWcdxFKx0S_VASGW4Y0-23" target="87MJ7t0eyfnhKf1NdNzo-9">
          <mxGeometry relative="1" as="geometry" />
        </mxCell>
        <mxCell id="uIWcdxFKx0S_VASGW4Y0-23" value="Hozzávaló" style="ellipse;whiteSpace=wrap;html=1;align=center;" parent="1" vertex="1">
          <mxGeometry x="520" y="330" width="100" height="40" as="geometry" />
        </mxCell>
        <mxCell id="uIWcdxFKx0S_VASGW4Y0-31" style="edgeStyle=orthogonalEdgeStyle;rounded=0;orthogonalLoop=1;jettySize=auto;html=1;exitX=0.5;exitY=1;exitDx=0;exitDy=0;dashed=1;entryX=0.5;entryY=1;entryDx=0;entryDy=0;" parent="1" source="uIWcdxFKx0S_VASGW4Y0-24" target="uIWcdxFKx0S_VASGW4Y0-19" edge="1">
          <mxGeometry relative="1" as="geometry">
            <mxPoint x="-10" y="420" as="targetPoint" />
            <Array as="points">
              <mxPoint x="355" y="560" />
              <mxPoint x="-5" y="560" />
            </Array>
          </mxGeometry>
        </mxCell>
        <mxCell id="uIWcdxFKx0S_VASGW4Y0-24" value="Pizzázó" style="shape=rhombus;perimeter=rhombusPerimeter;whiteSpace=wrap;html=1;align=center;" parent="1" vertex="1">
          <mxGeometry x="310" y="330" width="90" height="40" as="geometry" />
        </mxCell>
        <mxCell id="uIWcdxFKx0S_VASGW4Y0-40" style="edgeStyle=orthogonalEdgeStyle;rounded=0;orthogonalLoop=1;jettySize=auto;html=1;exitX=0.5;exitY=1;exitDx=0;exitDy=0;entryX=0.5;entryY=1;entryDx=0;entryDy=0;dashed=1;" parent="1" source="uIWcdxFKx0S_VASGW4Y0-29" target="uIWcdxFKx0S_VASGW4Y0-36" edge="1">
          <mxGeometry relative="1" as="geometry" />
        </mxCell>
        <mxCell id="uIWcdxFKx0S_VASGW4Y0-29" value="Beszállító" style="shape=rhombus;perimeter=rhombusPerimeter;whiteSpace=wrap;html=1;align=center;" parent="1" vertex="1">
          <mxGeometry x="630" y="330" width="90" height="40" as="geometry" />
        </mxCell>
        <mxCell id="uIWcdxFKx0S_VASGW4Y0-36" value="&lt;u&gt;Beszállító_ID&lt;/u&gt;" style="shape=rhombus;perimeter=rhombusPerimeter;whiteSpace=wrap;html=1;align=center;" parent="1" vertex="1">
          <mxGeometry x="760" y="330" width="90" height="40" as="geometry" />
        </mxCell>
        <mxCell id="uIWcdxFKx0S_VASGW4Y0-46" style="edgeStyle=orthogonalEdgeStyle;rounded=0;orthogonalLoop=1;jettySize=auto;html=1;exitX=0.5;exitY=1;exitDx=0;exitDy=0;endArrow=none;endFill=0;" parent="1" source="uIWcdxFKx0S_VASGW4Y0-37" target="uIWcdxFKx0S_VASGW4Y0-41" edge="1">
          <mxGeometry relative="1" as="geometry" />
        </mxCell>
        <mxCell id="uIWcdxFKx0S_VASGW4Y0-47" style="edgeStyle=orthogonalEdgeStyle;rounded=0;orthogonalLoop=1;jettySize=auto;html=1;exitX=0.5;exitY=1;exitDx=0;exitDy=0;entryX=0.5;entryY=0;entryDx=0;entryDy=0;endArrow=none;endFill=0;" parent="1" source="uIWcdxFKx0S_VASGW4Y0-37" target="uIWcdxFKx0S_VASGW4Y0-42" edge="1">
          <mxGeometry relative="1" as="geometry" />
        </mxCell>
        <mxCell id="uIWcdxFKx0S_VASGW4Y0-48" style="edgeStyle=orthogonalEdgeStyle;rounded=0;orthogonalLoop=1;jettySize=auto;html=1;exitX=0.5;exitY=1;exitDx=0;exitDy=0;entryX=0.5;entryY=0;entryDx=0;entryDy=0;endArrow=none;endFill=0;" parent="1" source="uIWcdxFKx0S_VASGW4Y0-37" target="uIWcdxFKx0S_VASGW4Y0-43" edge="1">
          <mxGeometry relative="1" as="geometry" />
        </mxCell>
        <mxCell id="uIWcdxFKx0S_VASGW4Y0-49" style="edgeStyle=orthogonalEdgeStyle;rounded=0;orthogonalLoop=1;jettySize=auto;html=1;exitX=0.5;exitY=1;exitDx=0;exitDy=0;endArrow=none;endFill=0;" parent="1" source="uIWcdxFKx0S_VASGW4Y0-37" target="uIWcdxFKx0S_VASGW4Y0-44" edge="1">
          <mxGeometry relative="1" as="geometry" />
        </mxCell>
        <mxCell id="uIWcdxFKx0S_VASGW4Y0-37" value="( Cím )" style="ellipse;whiteSpace=wrap;html=1;align=center;" parent="1" vertex="1">
          <mxGeometry x="860" y="330" width="100" height="40" as="geometry" />
        </mxCell>
        <mxCell id="uIWcdxFKx0S_VASGW4Y0-38" value="Név" style="ellipse;whiteSpace=wrap;html=1;align=center;" parent="1" vertex="1">
          <mxGeometry x="970" y="330" width="100" height="40" as="geometry" />
        </mxCell>
        <mxCell id="uIWcdxFKx0S_VASGW4Y0-39" value="Elérhetőség" style="ellipse;whiteSpace=wrap;html=1;align=center;" parent="1" vertex="1">
          <mxGeometry x="1080" y="330" width="100" height="40" as="geometry" />
        </mxCell>
        <mxCell id="87MJ7t0eyfnhKf1NdNzo-12" style="edgeStyle=orthogonalEdgeStyle;rounded=0;orthogonalLoop=1;jettySize=auto;html=1;exitX=0.5;exitY=1;exitDx=0;exitDy=0;entryX=0.5;entryY=0;entryDx=0;entryDy=0;endArrow=none;endFill=0;" edge="1" parent="1" source="uIWcdxFKx0S_VASGW4Y0-41" target="87MJ7t0eyfnhKf1NdNzo-11">
          <mxGeometry relative="1" as="geometry" />
        </mxCell>
        <mxCell id="uIWcdxFKx0S_VASGW4Y0-41" value="Város" style="ellipse;whiteSpace=wrap;html=1;align=center;" parent="1" vertex="1">
          <mxGeometry x="755" y="420" width="100" height="40" as="geometry" />
        </mxCell>
        <mxCell id="87MJ7t0eyfnhKf1NdNzo-14" style="edgeStyle=orthogonalEdgeStyle;rounded=0;orthogonalLoop=1;jettySize=auto;html=1;exitX=0.5;exitY=1;exitDx=0;exitDy=0;entryX=0.5;entryY=0;entryDx=0;entryDy=0;endArrow=none;endFill=0;" edge="1" parent="1" source="uIWcdxFKx0S_VASGW4Y0-42" target="87MJ7t0eyfnhKf1NdNzo-13">
          <mxGeometry relative="1" as="geometry" />
        </mxCell>
        <mxCell id="uIWcdxFKx0S_VASGW4Y0-42" value="Házszám" style="ellipse;whiteSpace=wrap;html=1;align=center;" parent="1" vertex="1">
          <mxGeometry x="860" y="420" width="100" height="40" as="geometry" />
        </mxCell>
        <mxCell id="87MJ7t0eyfnhKf1NdNzo-16" style="edgeStyle=orthogonalEdgeStyle;rounded=0;orthogonalLoop=1;jettySize=auto;html=1;exitX=0.5;exitY=1;exitDx=0;exitDy=0;entryX=0.5;entryY=0;entryDx=0;entryDy=0;endArrow=none;endFill=0;" edge="1" parent="1" source="uIWcdxFKx0S_VASGW4Y0-43" target="87MJ7t0eyfnhKf1NdNzo-15">
          <mxGeometry relative="1" as="geometry" />
        </mxCell>
        <mxCell id="uIWcdxFKx0S_VASGW4Y0-43" value="Utca" style="ellipse;whiteSpace=wrap;html=1;align=center;" parent="1" vertex="1">
          <mxGeometry x="970" y="420" width="100" height="40" as="geometry" />
        </mxCell>
        <mxCell id="87MJ7t0eyfnhKf1NdNzo-18" style="edgeStyle=orthogonalEdgeStyle;rounded=0;orthogonalLoop=1;jettySize=auto;html=1;exitX=0.5;exitY=1;exitDx=0;exitDy=0;entryX=0.5;entryY=0;entryDx=0;entryDy=0;endArrow=none;endFill=0;" edge="1" parent="1" source="uIWcdxFKx0S_VASGW4Y0-44" target="87MJ7t0eyfnhKf1NdNzo-17">
          <mxGeometry relative="1" as="geometry" />
        </mxCell>
        <mxCell id="uIWcdxFKx0S_VASGW4Y0-44" value="Irányítószám" style="ellipse;whiteSpace=wrap;html=1;align=center;" parent="1" vertex="1">
          <mxGeometry x="1080" y="420" width="100" height="40" as="geometry" />
        </mxCell>
        <mxCell id="uIWcdxFKx0S_VASGW4Y0-54" value="&lt;u&gt;Futár_ID&lt;/u&gt;" style="shape=rhombus;perimeter=rhombusPerimeter;whiteSpace=wrap;html=1;align=center;" parent="1" vertex="1">
          <mxGeometry x="1220" y="330" width="90" height="40" as="geometry" />
        </mxCell>
        <mxCell id="87MJ7t0eyfnhKf1NdNzo-20" style="edgeStyle=orthogonalEdgeStyle;rounded=0;orthogonalLoop=1;jettySize=auto;html=1;exitX=0.5;exitY=1;exitDx=0;exitDy=0;entryX=0.5;entryY=0;entryDx=0;entryDy=0;endArrow=none;endFill=0;" edge="1" parent="1" source="uIWcdxFKx0S_VASGW4Y0-55" target="87MJ7t0eyfnhKf1NdNzo-19">
          <mxGeometry relative="1" as="geometry" />
        </mxCell>
        <mxCell id="uIWcdxFKx0S_VASGW4Y0-55" value="Név" style="ellipse;whiteSpace=wrap;html=1;align=center;" parent="1" vertex="1">
          <mxGeometry x="1320" y="330" width="100" height="40" as="geometry" />
        </mxCell>
        <mxCell id="87MJ7t0eyfnhKf1NdNzo-22" style="edgeStyle=orthogonalEdgeStyle;rounded=0;orthogonalLoop=1;jettySize=auto;html=1;exitX=0.5;exitY=1;exitDx=0;exitDy=0;entryX=0.5;entryY=0;entryDx=0;entryDy=0;endArrow=none;endFill=0;" edge="1" parent="1" source="uIWcdxFKx0S_VASGW4Y0-56" target="87MJ7t0eyfnhKf1NdNzo-21">
          <mxGeometry relative="1" as="geometry" />
        </mxCell>
        <mxCell id="uIWcdxFKx0S_VASGW4Y0-56" value="Telefonszám" style="ellipse;whiteSpace=wrap;html=1;align=center;" parent="1" vertex="1">
          <mxGeometry x="1430" y="330" width="100" height="40" as="geometry" />
        </mxCell>
        <mxCell id="uIWcdxFKx0S_VASGW4Y0-57" value="" style="endArrow=none;dashed=1;html=1;dashPattern=1 3;strokeWidth=2;rounded=0;entryX=1;entryY=1;entryDx=0;entryDy=0;exitX=0;exitY=1;exitDx=0;exitDy=0;" parent="1" source="uIWcdxFKx0S_VASGW4Y0-24" target="uIWcdxFKx0S_VASGW4Y0-24" edge="1">
          <mxGeometry width="50" height="50" relative="1" as="geometry">
            <mxPoint x="320" y="355" as="sourcePoint" />
            <mxPoint x="385" y="354" as="targetPoint" />
          </mxGeometry>
        </mxCell>
        <mxCell id="uIWcdxFKx0S_VASGW4Y0-58" value="" style="endArrow=none;dashed=1;html=1;dashPattern=1 3;strokeWidth=2;rounded=0;entryX=1;entryY=1;entryDx=0;entryDy=0;exitX=0;exitY=1;exitDx=0;exitDy=0;" parent="1" edge="1">
          <mxGeometry width="50" height="50" relative="1" as="geometry">
            <mxPoint x="652.5" y="360" as="sourcePoint" />
            <mxPoint x="697.5" y="360" as="targetPoint" />
          </mxGeometry>
        </mxCell>
        <mxCell id="uIWcdxFKx0S_VASGW4Y0-61" style="edgeStyle=orthogonalEdgeStyle;rounded=0;orthogonalLoop=1;jettySize=auto;html=1;exitX=0.5;exitY=1;exitDx=0;exitDy=0;entryX=0.5;entryY=1;entryDx=0;entryDy=0;dashed=1;" parent="1" source="uIWcdxFKx0S_VASGW4Y0-59" target="uIWcdxFKx0S_VASGW4Y0-19" edge="1">
          <mxGeometry relative="1" as="geometry">
            <Array as="points">
              <mxPoint x="1585" y="580" />
              <mxPoint x="-20" y="580" />
              <mxPoint x="-20" y="370" />
            </Array>
          </mxGeometry>
        </mxCell>
        <mxCell id="uIWcdxFKx0S_VASGW4Y0-59" value="Pizzázó" style="shape=rhombus;perimeter=rhombusPerimeter;whiteSpace=wrap;html=1;align=center;" parent="1" vertex="1">
          <mxGeometry x="1540" y="330" width="90" height="40" as="geometry" />
        </mxCell>
        <mxCell id="uIWcdxFKx0S_VASGW4Y0-60" value="" style="endArrow=none;dashed=1;html=1;dashPattern=1 3;strokeWidth=2;rounded=0;entryX=1;entryY=1;entryDx=0;entryDy=0;exitX=0;exitY=1;exitDx=0;exitDy=0;" parent="1" edge="1">
          <mxGeometry width="50" height="50" relative="1" as="geometry">
            <mxPoint x="1562.5" y="360" as="sourcePoint" />
            <mxPoint x="1607.5" y="360" as="targetPoint" />
          </mxGeometry>
        </mxCell>
        <mxCell id="uIWcdxFKx0S_VASGW4Y0-67" value="&lt;u&gt;Pizza_ID&lt;/u&gt;" style="shape=rhombus;perimeter=rhombusPerimeter;whiteSpace=wrap;html=1;align=center;" parent="1" vertex="1">
          <mxGeometry x="1670" y="330" width="90" height="40" as="geometry" />
        </mxCell>
        <mxCell id="87MJ7t0eyfnhKf1NdNzo-42" style="edgeStyle=orthogonalEdgeStyle;rounded=0;orthogonalLoop=1;jettySize=auto;html=1;exitX=0.5;exitY=1;exitDx=0;exitDy=0;entryX=0.5;entryY=0;entryDx=0;entryDy=0;endArrow=none;endFill=0;" edge="1" parent="1" source="uIWcdxFKx0S_VASGW4Y0-69" target="87MJ7t0eyfnhKf1NdNzo-23">
          <mxGeometry relative="1" as="geometry" />
        </mxCell>
        <mxCell id="uIWcdxFKx0S_VASGW4Y0-69" value="Pizza neve" style="ellipse;whiteSpace=wrap;html=1;align=center;" parent="1" vertex="1">
          <mxGeometry x="1770" y="330" width="100" height="40" as="geometry" />
        </mxCell>
        <mxCell id="87MJ7t0eyfnhKf1NdNzo-43" style="edgeStyle=orthogonalEdgeStyle;rounded=0;orthogonalLoop=1;jettySize=auto;html=1;exitX=0.5;exitY=1;exitDx=0;exitDy=0;entryX=0.5;entryY=0;entryDx=0;entryDy=0;endArrow=none;endFill=0;" edge="1" parent="1" source="uIWcdxFKx0S_VASGW4Y0-70" target="87MJ7t0eyfnhKf1NdNzo-24">
          <mxGeometry relative="1" as="geometry" />
        </mxCell>
        <mxCell id="uIWcdxFKx0S_VASGW4Y0-70" value="Feltét" style="ellipse;shape=doubleEllipse;margin=3;whiteSpace=wrap;html=1;align=center;" parent="1" vertex="1">
          <mxGeometry x="1880" y="330" width="100" height="40" as="geometry" />
        </mxCell>
        <mxCell id="87MJ7t0eyfnhKf1NdNzo-44" style="edgeStyle=orthogonalEdgeStyle;rounded=0;orthogonalLoop=1;jettySize=auto;html=1;exitX=0.5;exitY=1;exitDx=0;exitDy=0;entryX=0.5;entryY=0;entryDx=0;entryDy=0;endArrow=none;endFill=0;" edge="1" parent="1" source="uIWcdxFKx0S_VASGW4Y0-71" target="87MJ7t0eyfnhKf1NdNzo-25">
          <mxGeometry relative="1" as="geometry" />
        </mxCell>
        <mxCell id="uIWcdxFKx0S_VASGW4Y0-71" value="Teljes ár" style="ellipse;whiteSpace=wrap;html=1;align=center;dashed=1;" parent="1" vertex="1">
          <mxGeometry x="1990" y="330" width="100" height="40" as="geometry" />
        </mxCell>
        <mxCell id="87MJ7t0eyfnhKf1NdNzo-45" style="edgeStyle=orthogonalEdgeStyle;rounded=0;orthogonalLoop=1;jettySize=auto;html=1;exitX=0.5;exitY=1;exitDx=0;exitDy=0;entryX=0.5;entryY=0;entryDx=0;entryDy=0;endArrow=none;endFill=0;" edge="1" parent="1" source="uIWcdxFKx0S_VASGW4Y0-73" target="87MJ7t0eyfnhKf1NdNzo-26">
          <mxGeometry relative="1" as="geometry" />
        </mxCell>
        <mxCell id="uIWcdxFKx0S_VASGW4Y0-73" value="Méret" style="ellipse;shape=doubleEllipse;margin=3;whiteSpace=wrap;html=1;align=center;" parent="1" vertex="1">
          <mxGeometry x="2100" y="330" width="100" height="40" as="geometry" />
        </mxCell>
        <mxCell id="uIWcdxFKx0S_VASGW4Y0-81" style="edgeStyle=orthogonalEdgeStyle;rounded=0;orthogonalLoop=1;jettySize=auto;html=1;exitX=0.5;exitY=1;exitDx=0;exitDy=0;dashed=1;entryX=0;entryY=1;entryDx=0;entryDy=0;" parent="1" source="uIWcdxFKx0S_VASGW4Y0-78" target="uIWcdxFKx0S_VASGW4Y0-19" edge="1">
          <mxGeometry relative="1" as="geometry">
            <mxPoint x="-20" y="360" as="targetPoint" />
            <Array as="points">
              <mxPoint x="2255" y="600" />
              <mxPoint x="-40" y="600" />
              <mxPoint x="-40" y="360" />
            </Array>
          </mxGeometry>
        </mxCell>
        <mxCell id="uIWcdxFKx0S_VASGW4Y0-78" value="Pizzázó" style="shape=rhombus;perimeter=rhombusPerimeter;whiteSpace=wrap;html=1;align=center;" parent="1" vertex="1">
          <mxGeometry x="2210" y="330" width="90" height="40" as="geometry" />
        </mxCell>
        <mxCell id="uIWcdxFKx0S_VASGW4Y0-79" value="" style="endArrow=none;dashed=1;html=1;dashPattern=1 3;strokeWidth=2;rounded=0;entryX=1;entryY=1;entryDx=0;entryDy=0;exitX=0;exitY=1;exitDx=0;exitDy=0;" parent="1" edge="1">
          <mxGeometry width="50" height="50" relative="1" as="geometry">
            <mxPoint x="2232.5" y="360" as="sourcePoint" />
            <mxPoint x="2277.5" y="360" as="targetPoint" />
          </mxGeometry>
        </mxCell>
        <mxCell id="uIWcdxFKx0S_VASGW4Y0-87" style="edgeStyle=orthogonalEdgeStyle;rounded=0;orthogonalLoop=1;jettySize=auto;html=1;exitX=0.5;exitY=1;exitDx=0;exitDy=0;entryX=0.5;entryY=0;entryDx=0;entryDy=0;endArrow=none;endFill=0;" parent="1" source="uIWcdxFKx0S_VASGW4Y0-82" target="uIWcdxFKx0S_VASGW4Y0-83" edge="1">
          <mxGeometry relative="1" as="geometry" />
        </mxCell>
        <mxCell id="uIWcdxFKx0S_VASGW4Y0-88" style="edgeStyle=orthogonalEdgeStyle;rounded=0;orthogonalLoop=1;jettySize=auto;html=1;exitX=0.5;exitY=1;exitDx=0;exitDy=0;entryX=0.5;entryY=0;entryDx=0;entryDy=0;endArrow=none;endFill=0;" parent="1" source="uIWcdxFKx0S_VASGW4Y0-82" target="uIWcdxFKx0S_VASGW4Y0-85" edge="1">
          <mxGeometry relative="1" as="geometry" />
        </mxCell>
        <mxCell id="uIWcdxFKx0S_VASGW4Y0-82" value="Rendelés" style="ellipse;shape=doubleEllipse;margin=3;whiteSpace=wrap;html=1;align=center;" parent="1" vertex="1">
          <mxGeometry x="2450" y="240" width="100" height="40" as="geometry" />
        </mxCell>
        <mxCell id="uIWcdxFKx0S_VASGW4Y0-90" style="edgeStyle=orthogonalEdgeStyle;rounded=0;orthogonalLoop=1;jettySize=auto;html=1;exitX=0.5;exitY=1;exitDx=0;exitDy=0;entryX=0.5;entryY=1;entryDx=0;entryDy=0;dashed=1;" parent="1" source="uIWcdxFKx0S_VASGW4Y0-83" target="uIWcdxFKx0S_VASGW4Y0-67" edge="1">
          <mxGeometry relative="1" as="geometry">
            <Array as="points">
              <mxPoint x="2415" y="570" />
              <mxPoint x="1715" y="570" />
            </Array>
          </mxGeometry>
        </mxCell>
        <mxCell id="uIWcdxFKx0S_VASGW4Y0-83" value="Pizza" style="shape=rhombus;perimeter=rhombusPerimeter;whiteSpace=wrap;html=1;align=center;" parent="1" vertex="1">
          <mxGeometry x="2370" y="330" width="90" height="40" as="geometry" />
        </mxCell>
        <mxCell id="uIWcdxFKx0S_VASGW4Y0-84" value="" style="endArrow=none;dashed=1;html=1;dashPattern=1 3;strokeWidth=2;rounded=0;entryX=1;entryY=1;entryDx=0;entryDy=0;exitX=0;exitY=1;exitDx=0;exitDy=0;" parent="1" edge="1">
          <mxGeometry width="50" height="50" relative="1" as="geometry">
            <mxPoint x="2392.5" y="360" as="sourcePoint" />
            <mxPoint x="2437.5" y="360" as="targetPoint" />
          </mxGeometry>
        </mxCell>
        <mxCell id="uIWcdxFKx0S_VASGW4Y0-89" value="" style="group" parent="1" vertex="1" connectable="0">
          <mxGeometry x="2540" y="330" width="90" height="40" as="geometry" />
        </mxCell>
        <mxCell id="uIWcdxFKx0S_VASGW4Y0-85" value="Vevő" style="shape=rhombus;perimeter=rhombusPerimeter;whiteSpace=wrap;html=1;align=center;" parent="uIWcdxFKx0S_VASGW4Y0-89" vertex="1">
          <mxGeometry width="90" height="40" as="geometry" />
        </mxCell>
        <mxCell id="uIWcdxFKx0S_VASGW4Y0-86" value="" style="endArrow=none;dashed=1;html=1;dashPattern=1 3;strokeWidth=2;rounded=0;entryX=1;entryY=1;entryDx=0;entryDy=0;exitX=0;exitY=1;exitDx=0;exitDy=0;" parent="uIWcdxFKx0S_VASGW4Y0-89" edge="1">
          <mxGeometry width="50" height="50" relative="1" as="geometry">
            <mxPoint x="22.5" y="30" as="sourcePoint" />
            <mxPoint x="67.5" y="30" as="targetPoint" />
          </mxGeometry>
        </mxCell>
        <mxCell id="uIWcdxFKx0S_VASGW4Y0-91" value="&lt;u&gt;Vevő_ID&lt;/u&gt;" style="shape=rhombus;perimeter=rhombusPerimeter;whiteSpace=wrap;html=1;align=center;" parent="1" vertex="1">
          <mxGeometry x="2710" y="330" width="90" height="40" as="geometry" />
        </mxCell>
        <mxCell id="87MJ7t0eyfnhKf1NdNzo-34" style="edgeStyle=orthogonalEdgeStyle;rounded=0;orthogonalLoop=1;jettySize=auto;html=1;exitX=0.5;exitY=1;exitDx=0;exitDy=0;entryX=0.5;entryY=0;entryDx=0;entryDy=0;endArrow=none;endFill=0;" edge="1" parent="1" source="uIWcdxFKx0S_VASGW4Y0-92" target="87MJ7t0eyfnhKf1NdNzo-27">
          <mxGeometry relative="1" as="geometry" />
        </mxCell>
        <mxCell id="uIWcdxFKx0S_VASGW4Y0-92" value="Név" style="ellipse;whiteSpace=wrap;html=1;align=center;" parent="1" vertex="1">
          <mxGeometry x="2810" y="330" width="100" height="40" as="geometry" />
        </mxCell>
        <mxCell id="87MJ7t0eyfnhKf1NdNzo-35" style="edgeStyle=orthogonalEdgeStyle;rounded=0;orthogonalLoop=1;jettySize=auto;html=1;exitX=0.5;exitY=1;exitDx=0;exitDy=0;endArrow=none;endFill=0;" edge="1" parent="1" source="uIWcdxFKx0S_VASGW4Y0-93" target="87MJ7t0eyfnhKf1NdNzo-29">
          <mxGeometry relative="1" as="geometry" />
        </mxCell>
        <mxCell id="uIWcdxFKx0S_VASGW4Y0-93" value="Telefonszám" style="ellipse;whiteSpace=wrap;html=1;align=center;" parent="1" vertex="1">
          <mxGeometry x="2920" y="330" width="100" height="40" as="geometry" />
        </mxCell>
        <mxCell id="uIWcdxFKx0S_VASGW4Y0-103" style="edgeStyle=orthogonalEdgeStyle;rounded=0;orthogonalLoop=1;jettySize=auto;html=1;exitX=0.5;exitY=1;exitDx=0;exitDy=0;entryX=0.5;entryY=0;entryDx=0;entryDy=0;endArrow=none;endFill=0;" parent="1" source="uIWcdxFKx0S_VASGW4Y0-94" target="uIWcdxFKx0S_VASGW4Y0-95" edge="1">
          <mxGeometry relative="1" as="geometry" />
        </mxCell>
        <mxCell id="uIWcdxFKx0S_VASGW4Y0-104" style="edgeStyle=orthogonalEdgeStyle;rounded=0;orthogonalLoop=1;jettySize=auto;html=1;exitX=0.5;exitY=1;exitDx=0;exitDy=0;entryX=0.5;entryY=0;entryDx=0;entryDy=0;endArrow=none;endFill=0;" parent="1" source="uIWcdxFKx0S_VASGW4Y0-94" target="uIWcdxFKx0S_VASGW4Y0-96" edge="1">
          <mxGeometry relative="1" as="geometry" />
        </mxCell>
        <mxCell id="uIWcdxFKx0S_VASGW4Y0-105" style="edgeStyle=orthogonalEdgeStyle;rounded=0;orthogonalLoop=1;jettySize=auto;html=1;exitX=0.5;exitY=1;exitDx=0;exitDy=0;entryX=0.5;entryY=0;entryDx=0;entryDy=0;endArrow=none;endFill=0;" parent="1" source="uIWcdxFKx0S_VASGW4Y0-94" target="uIWcdxFKx0S_VASGW4Y0-97" edge="1">
          <mxGeometry relative="1" as="geometry" />
        </mxCell>
        <mxCell id="uIWcdxFKx0S_VASGW4Y0-106" style="edgeStyle=orthogonalEdgeStyle;rounded=0;orthogonalLoop=1;jettySize=auto;html=1;exitX=0.5;exitY=1;exitDx=0;exitDy=0;entryX=0.5;entryY=0;entryDx=0;entryDy=0;endArrow=none;endFill=0;" parent="1" source="uIWcdxFKx0S_VASGW4Y0-94" target="uIWcdxFKx0S_VASGW4Y0-98" edge="1">
          <mxGeometry relative="1" as="geometry" />
        </mxCell>
        <mxCell id="uIWcdxFKx0S_VASGW4Y0-94" value="( Cím )" style="ellipse;whiteSpace=wrap;html=1;align=center;" parent="1" vertex="1">
          <mxGeometry x="3030" y="330" width="100" height="40" as="geometry" />
        </mxCell>
        <mxCell id="87MJ7t0eyfnhKf1NdNzo-36" style="edgeStyle=orthogonalEdgeStyle;rounded=0;orthogonalLoop=1;jettySize=auto;html=1;exitX=0.5;exitY=1;exitDx=0;exitDy=0;entryX=0.5;entryY=0;entryDx=0;entryDy=0;endArrow=none;endFill=0;" edge="1" parent="1" source="uIWcdxFKx0S_VASGW4Y0-95" target="87MJ7t0eyfnhKf1NdNzo-30">
          <mxGeometry relative="1" as="geometry" />
        </mxCell>
        <mxCell id="uIWcdxFKx0S_VASGW4Y0-95" value="Város" style="ellipse;whiteSpace=wrap;html=1;align=center;" parent="1" vertex="1">
          <mxGeometry x="3030" y="430" width="100" height="40" as="geometry" />
        </mxCell>
        <mxCell id="87MJ7t0eyfnhKf1NdNzo-37" style="edgeStyle=orthogonalEdgeStyle;rounded=0;orthogonalLoop=1;jettySize=auto;html=1;exitX=0.5;exitY=1;exitDx=0;exitDy=0;entryX=0.5;entryY=0;entryDx=0;entryDy=0;endArrow=none;endFill=0;" edge="1" parent="1" source="uIWcdxFKx0S_VASGW4Y0-96" target="87MJ7t0eyfnhKf1NdNzo-31">
          <mxGeometry relative="1" as="geometry" />
        </mxCell>
        <mxCell id="uIWcdxFKx0S_VASGW4Y0-96" value="Házszám" style="ellipse;whiteSpace=wrap;html=1;align=center;" parent="1" vertex="1">
          <mxGeometry x="3140" y="430" width="100" height="40" as="geometry" />
        </mxCell>
        <mxCell id="87MJ7t0eyfnhKf1NdNzo-38" style="edgeStyle=orthogonalEdgeStyle;rounded=0;orthogonalLoop=1;jettySize=auto;html=1;exitX=0.5;exitY=1;exitDx=0;exitDy=0;entryX=0.5;entryY=0;entryDx=0;entryDy=0;endArrow=none;endFill=0;" edge="1" parent="1" source="uIWcdxFKx0S_VASGW4Y0-97" target="87MJ7t0eyfnhKf1NdNzo-32">
          <mxGeometry relative="1" as="geometry" />
        </mxCell>
        <mxCell id="uIWcdxFKx0S_VASGW4Y0-97" value="Utca" style="ellipse;whiteSpace=wrap;html=1;align=center;" parent="1" vertex="1">
          <mxGeometry x="3250" y="430" width="100" height="40" as="geometry" />
        </mxCell>
        <mxCell id="87MJ7t0eyfnhKf1NdNzo-39" style="edgeStyle=orthogonalEdgeStyle;rounded=0;orthogonalLoop=1;jettySize=auto;html=1;exitX=0.5;exitY=1;exitDx=0;exitDy=0;entryX=0.5;entryY=0;entryDx=0;entryDy=0;endArrow=none;endFill=0;" edge="1" parent="1" source="uIWcdxFKx0S_VASGW4Y0-98" target="87MJ7t0eyfnhKf1NdNzo-33">
          <mxGeometry relative="1" as="geometry" />
        </mxCell>
        <mxCell id="uIWcdxFKx0S_VASGW4Y0-98" value="Irányítószám" style="ellipse;whiteSpace=wrap;html=1;align=center;" parent="1" vertex="1">
          <mxGeometry x="3360" y="430" width="100" height="40" as="geometry" />
        </mxCell>
        <mxCell id="uIWcdxFKx0S_VASGW4Y0-108" style="edgeStyle=orthogonalEdgeStyle;rounded=0;orthogonalLoop=1;jettySize=auto;html=1;exitX=0.5;exitY=1;exitDx=0;exitDy=0;entryX=0.5;entryY=1;entryDx=0;entryDy=0;dashed=1;" parent="1" source="uIWcdxFKx0S_VASGW4Y0-85" target="uIWcdxFKx0S_VASGW4Y0-91" edge="1">
          <mxGeometry relative="1" as="geometry" />
        </mxCell>
        <mxCell id="87MJ7t0eyfnhKf1NdNzo-49" style="edgeStyle=orthogonalEdgeStyle;rounded=0;orthogonalLoop=1;jettySize=auto;html=1;exitX=0.5;exitY=1;exitDx=0;exitDy=0;entryX=0.5;entryY=0;entryDx=0;entryDy=0;endArrow=none;endFill=0;" edge="1" parent="1" source="uIWcdxFKx0S_VASGW4Y0-109" target="87MJ7t0eyfnhKf1NdNzo-46">
          <mxGeometry relative="1" as="geometry" />
        </mxCell>
        <mxCell id="uIWcdxFKx0S_VASGW4Y0-109" value="Bank" style="ellipse;whiteSpace=wrap;html=1;align=center;" parent="1" vertex="1">
          <mxGeometry x="3580" y="330" width="100" height="40" as="geometry" />
        </mxCell>
        <mxCell id="87MJ7t0eyfnhKf1NdNzo-50" style="edgeStyle=orthogonalEdgeStyle;rounded=0;orthogonalLoop=1;jettySize=auto;html=1;entryX=0.5;entryY=0;entryDx=0;entryDy=0;endArrow=none;endFill=0;exitX=0.5;exitY=1;exitDx=0;exitDy=0;" edge="1" parent="1" source="uIWcdxFKx0S_VASGW4Y0-110" target="87MJ7t0eyfnhKf1NdNzo-47">
          <mxGeometry relative="1" as="geometry">
            <mxPoint x="3780" y="420" as="sourcePoint" />
          </mxGeometry>
        </mxCell>
        <mxCell id="uIWcdxFKx0S_VASGW4Y0-110" value="Típus" style="ellipse;whiteSpace=wrap;html=1;align=center;" parent="1" vertex="1">
          <mxGeometry x="3690" y="330" width="100" height="40" as="geometry" />
        </mxCell>
        <mxCell id="87MJ7t0eyfnhKf1NdNzo-51" style="edgeStyle=orthogonalEdgeStyle;rounded=0;orthogonalLoop=1;jettySize=auto;html=1;exitX=0.5;exitY=1;exitDx=0;exitDy=0;endArrow=none;endFill=0;" edge="1" parent="1" source="uIWcdxFKx0S_VASGW4Y0-111" target="87MJ7t0eyfnhKf1NdNzo-48">
          <mxGeometry relative="1" as="geometry" />
        </mxCell>
        <mxCell id="uIWcdxFKx0S_VASGW4Y0-111" value="Lejárati dátum" style="ellipse;whiteSpace=wrap;html=1;align=center;" parent="1" vertex="1">
          <mxGeometry x="3801.5" y="330" width="100" height="40" as="geometry" />
        </mxCell>
        <mxCell id="uIWcdxFKx0S_VASGW4Y0-112" value="&lt;u&gt;Kártyaszám&lt;/u&gt;" style="shape=rhombus;perimeter=rhombusPerimeter;whiteSpace=wrap;html=1;align=center;" parent="1" vertex="1">
          <mxGeometry x="3480" y="330" width="90" height="40" as="geometry" />
        </mxCell>
        <mxCell id="uIWcdxFKx0S_VASGW4Y0-119" style="edgeStyle=orthogonalEdgeStyle;rounded=0;orthogonalLoop=1;jettySize=auto;html=1;exitX=0.5;exitY=1;exitDx=0;exitDy=0;dashed=1;entryX=1;entryY=1;entryDx=0;entryDy=0;" parent="1" source="uIWcdxFKx0S_VASGW4Y0-117" target="uIWcdxFKx0S_VASGW4Y0-91" edge="1">
          <mxGeometry relative="1" as="geometry">
            <mxPoint x="2780" y="390" as="targetPoint" />
            <Array as="points">
              <mxPoint x="3955" y="600" />
              <mxPoint x="2800" y="600" />
              <mxPoint x="2800" y="360" />
            </Array>
          </mxGeometry>
        </mxCell>
        <mxCell id="uIWcdxFKx0S_VASGW4Y0-117" value="Vevő" style="shape=rhombus;perimeter=rhombusPerimeter;whiteSpace=wrap;html=1;align=center;" parent="1" vertex="1">
          <mxGeometry x="3910" y="330" width="90" height="40" as="geometry" />
        </mxCell>
        <mxCell id="uIWcdxFKx0S_VASGW4Y0-120" value="" style="endArrow=none;dashed=1;html=1;dashPattern=1 3;strokeWidth=2;rounded=0;entryX=1;entryY=1;entryDx=0;entryDy=0;exitX=0;exitY=1;exitDx=0;exitDy=0;" parent="1" edge="1">
          <mxGeometry width="50" height="50" relative="1" as="geometry">
            <mxPoint x="3932.5" y="360" as="sourcePoint" />
            <mxPoint x="3977.5" y="360" as="targetPoint" />
          </mxGeometry>
        </mxCell>
        <mxCell id="uIWcdxFKx0S_VASGW4Y0-123" style="edgeStyle=orthogonalEdgeStyle;rounded=0;orthogonalLoop=1;jettySize=auto;html=1;exitX=0.5;exitY=1;exitDx=0;exitDy=0;entryX=0.5;entryY=0;entryDx=0;entryDy=0;endArrow=none;endFill=0;" parent="1" source="uIWcdxFKx0S_VASGW4Y0-122" target="uIWcdxFKx0S_VASGW4Y0-3" edge="1">
          <mxGeometry relative="1" as="geometry" />
        </mxCell>
        <mxCell id="uIWcdxFKx0S_VASGW4Y0-124" style="edgeStyle=orthogonalEdgeStyle;rounded=0;orthogonalLoop=1;jettySize=auto;html=1;exitX=0.5;exitY=1;exitDx=0;exitDy=0;entryX=0.5;entryY=0;entryDx=0;entryDy=0;endArrow=none;endFill=0;" parent="1" source="uIWcdxFKx0S_VASGW4Y0-122" target="uIWcdxFKx0S_VASGW4Y0-20" edge="1">
          <mxGeometry relative="1" as="geometry" />
        </mxCell>
        <mxCell id="uIWcdxFKx0S_VASGW4Y0-125" style="edgeStyle=orthogonalEdgeStyle;rounded=0;orthogonalLoop=1;jettySize=auto;html=1;exitX=0.5;exitY=1;exitDx=0;exitDy=0;endArrow=none;endFill=0;" parent="1" source="uIWcdxFKx0S_VASGW4Y0-122" target="uIWcdxFKx0S_VASGW4Y0-6" edge="1">
          <mxGeometry relative="1" as="geometry" />
        </mxCell>
        <mxCell id="uIWcdxFKx0S_VASGW4Y0-126" style="edgeStyle=orthogonalEdgeStyle;rounded=0;orthogonalLoop=1;jettySize=auto;html=1;exitX=0.5;exitY=1;exitDx=0;exitDy=0;entryX=0.5;entryY=0;entryDx=0;entryDy=0;endArrow=none;endFill=0;" parent="1" source="uIWcdxFKx0S_VASGW4Y0-122" target="uIWcdxFKx0S_VASGW4Y0-4" edge="1">
          <mxGeometry relative="1" as="geometry" />
        </mxCell>
        <mxCell id="uIWcdxFKx0S_VASGW4Y0-127" style="edgeStyle=orthogonalEdgeStyle;rounded=0;orthogonalLoop=1;jettySize=auto;html=1;exitX=0.5;exitY=1;exitDx=0;exitDy=0;endArrow=none;endFill=0;" parent="1" source="uIWcdxFKx0S_VASGW4Y0-122" target="uIWcdxFKx0S_VASGW4Y0-5" edge="1">
          <mxGeometry relative="1" as="geometry" />
        </mxCell>
        <mxCell id="uIWcdxFKx0S_VASGW4Y0-128" style="edgeStyle=orthogonalEdgeStyle;rounded=0;orthogonalLoop=1;jettySize=auto;html=1;exitX=0.5;exitY=1;exitDx=0;exitDy=0;entryX=0.5;entryY=0;entryDx=0;entryDy=0;endArrow=none;endFill=0;" parent="1" source="uIWcdxFKx0S_VASGW4Y0-122" target="uIWcdxFKx0S_VASGW4Y0-82" edge="1">
          <mxGeometry relative="1" as="geometry" />
        </mxCell>
        <mxCell id="uIWcdxFKx0S_VASGW4Y0-129" style="edgeStyle=orthogonalEdgeStyle;rounded=0;orthogonalLoop=1;jettySize=auto;html=1;exitX=0.5;exitY=1;exitDx=0;exitDy=0;entryX=0.5;entryY=0;entryDx=0;entryDy=0;endArrow=none;endFill=0;" parent="1" source="uIWcdxFKx0S_VASGW4Y0-122" target="uIWcdxFKx0S_VASGW4Y0-7" edge="1">
          <mxGeometry relative="1" as="geometry" />
        </mxCell>
        <mxCell id="uIWcdxFKx0S_VASGW4Y0-130" style="edgeStyle=orthogonalEdgeStyle;rounded=0;orthogonalLoop=1;jettySize=auto;html=1;exitX=0.5;exitY=1;exitDx=0;exitDy=0;entryX=0.5;entryY=0;entryDx=0;entryDy=0;endArrow=none;endFill=0;" parent="1" source="uIWcdxFKx0S_VASGW4Y0-122" target="uIWcdxFKx0S_VASGW4Y0-8" edge="1">
          <mxGeometry relative="1" as="geometry" />
        </mxCell>
        <mxCell id="uIWcdxFKx0S_VASGW4Y0-122" value="Pizzázó_EZ3YRC" style="ellipse;whiteSpace=wrap;html=1;align=center;" parent="1" vertex="1">
          <mxGeometry x="1940" y="-90" width="100" height="40" as="geometry" />
        </mxCell>
        <mxCell id="87MJ7t0eyfnhKf1NdNzo-1" value="" style="rounded=0;whiteSpace=wrap;html=1;" vertex="1" parent="1">
          <mxGeometry x="150" y="500" width="40" height="50" as="geometry" />
        </mxCell>
        <mxCell id="87MJ7t0eyfnhKf1NdNzo-3" value="" style="rounded=0;whiteSpace=wrap;html=1;" vertex="1" parent="1">
          <mxGeometry x="260" y="500" width="40" height="50" as="geometry" />
        </mxCell>
        <mxCell id="87MJ7t0eyfnhKf1NdNzo-5" value="" style="rounded=0;whiteSpace=wrap;html=1;" vertex="1" parent="1">
          <mxGeometry x="80" y="500" width="40" height="50" as="geometry" />
        </mxCell>
        <mxCell id="87MJ7t0eyfnhKf1NdNzo-7" value="" style="rounded=0;whiteSpace=wrap;html=1;" vertex="1" parent="1">
          <mxGeometry x="440" y="500" width="40" height="50" as="geometry" />
        </mxCell>
        <mxCell id="87MJ7t0eyfnhKf1NdNzo-9" value="" style="rounded=0;whiteSpace=wrap;html=1;" vertex="1" parent="1">
          <mxGeometry x="550" y="500" width="40" height="50" as="geometry" />
        </mxCell>
        <mxCell id="87MJ7t0eyfnhKf1NdNzo-11" value="" style="rounded=0;whiteSpace=wrap;html=1;" vertex="1" parent="1">
          <mxGeometry x="785" y="500" width="40" height="50" as="geometry" />
        </mxCell>
        <mxCell id="87MJ7t0eyfnhKf1NdNzo-13" value="" style="rounded=0;whiteSpace=wrap;html=1;" vertex="1" parent="1">
          <mxGeometry x="890" y="500" width="40" height="50" as="geometry" />
        </mxCell>
        <mxCell id="87MJ7t0eyfnhKf1NdNzo-15" value="" style="rounded=0;whiteSpace=wrap;html=1;" vertex="1" parent="1">
          <mxGeometry x="1000" y="500" width="40" height="50" as="geometry" />
        </mxCell>
        <mxCell id="87MJ7t0eyfnhKf1NdNzo-17" value="" style="rounded=0;whiteSpace=wrap;html=1;" vertex="1" parent="1">
          <mxGeometry x="1110" y="500" width="40" height="50" as="geometry" />
        </mxCell>
        <mxCell id="87MJ7t0eyfnhKf1NdNzo-19" value="" style="rounded=0;whiteSpace=wrap;html=1;" vertex="1" parent="1">
          <mxGeometry x="1350" y="500" width="40" height="50" as="geometry" />
        </mxCell>
        <mxCell id="87MJ7t0eyfnhKf1NdNzo-21" value="" style="rounded=0;whiteSpace=wrap;html=1;" vertex="1" parent="1">
          <mxGeometry x="1460" y="500" width="40" height="50" as="geometry" />
        </mxCell>
        <mxCell id="87MJ7t0eyfnhKf1NdNzo-23" value="" style="rounded=0;whiteSpace=wrap;html=1;" vertex="1" parent="1">
          <mxGeometry x="1800" y="500" width="40" height="50" as="geometry" />
        </mxCell>
        <mxCell id="87MJ7t0eyfnhKf1NdNzo-24" value="" style="rounded=0;whiteSpace=wrap;html=1;" vertex="1" parent="1">
          <mxGeometry x="1910" y="500" width="40" height="50" as="geometry" />
        </mxCell>
        <mxCell id="87MJ7t0eyfnhKf1NdNzo-25" value="" style="rounded=0;whiteSpace=wrap;html=1;" vertex="1" parent="1">
          <mxGeometry x="2020" y="500" width="40" height="50" as="geometry" />
        </mxCell>
        <mxCell id="87MJ7t0eyfnhKf1NdNzo-26" value="" style="rounded=0;whiteSpace=wrap;html=1;" vertex="1" parent="1">
          <mxGeometry x="2130" y="500" width="40" height="50" as="geometry" />
        </mxCell>
        <mxCell id="87MJ7t0eyfnhKf1NdNzo-27" value="" style="rounded=0;whiteSpace=wrap;html=1;" vertex="1" parent="1">
          <mxGeometry x="2840" y="500" width="40" height="50" as="geometry" />
        </mxCell>
        <mxCell id="87MJ7t0eyfnhKf1NdNzo-29" value="" style="rounded=0;whiteSpace=wrap;html=1;" vertex="1" parent="1">
          <mxGeometry x="2950" y="500" width="40" height="50" as="geometry" />
        </mxCell>
        <mxCell id="87MJ7t0eyfnhKf1NdNzo-30" value="" style="rounded=0;whiteSpace=wrap;html=1;" vertex="1" parent="1">
          <mxGeometry x="3060" y="500" width="40" height="50" as="geometry" />
        </mxCell>
        <mxCell id="87MJ7t0eyfnhKf1NdNzo-31" value="" style="rounded=0;whiteSpace=wrap;html=1;" vertex="1" parent="1">
          <mxGeometry x="3170" y="500" width="40" height="50" as="geometry" />
        </mxCell>
        <mxCell id="87MJ7t0eyfnhKf1NdNzo-32" value="" style="rounded=0;whiteSpace=wrap;html=1;" vertex="1" parent="1">
          <mxGeometry x="3280" y="500" width="40" height="50" as="geometry" />
        </mxCell>
        <mxCell id="87MJ7t0eyfnhKf1NdNzo-33" value="" style="rounded=0;whiteSpace=wrap;html=1;" vertex="1" parent="1">
          <mxGeometry x="3390" y="500" width="40" height="50" as="geometry" />
        </mxCell>
        <mxCell id="87MJ7t0eyfnhKf1NdNzo-46" value="" style="rounded=0;whiteSpace=wrap;html=1;" vertex="1" parent="1">
          <mxGeometry x="3610" y="500" width="40" height="50" as="geometry" />
        </mxCell>
        <mxCell id="87MJ7t0eyfnhKf1NdNzo-47" value="" style="rounded=0;whiteSpace=wrap;html=1;" vertex="1" parent="1">
          <mxGeometry x="3720" y="500" width="40" height="50" as="geometry" />
        </mxCell>
        <mxCell id="87MJ7t0eyfnhKf1NdNzo-48" value="" style="rounded=0;whiteSpace=wrap;html=1;" vertex="1" parent="1">
          <mxGeometry x="3831.5" y="500" width="40" height="50" as="geometry" />
        </mxCell>
      </root>
    </mxGraphModel>
  </diagram>
</mxfile>
